<?xml version="1.0" encoding="UTF-8"?>
<svg width="117px" height="68px" viewBox="0 0 117 68" version="1.1" xmlns="http://www.w3.org/2000/svg" xmlns:xlink="http://www.w3.org/1999/xlink">
    <!-- Generator: Sketch 58 (84663) - https://sketch.com -->
    <title>B&amp;R_Logotype</title>
    <desc>Created with Sketch.</desc>
    <g id="B&amp;R_Logotype" stroke="none" stroke-width="1" fill="none" fill-rule="evenodd">
        <path d="M109.634766,68 C101.702621,68 91.331299,65.2918931 91.220703,48.3526473 C91.152962,37.9775302 87.09478,34.3854624 83.40625,33.0770164 C79.216591,32.1374475 73.860229,32.0265836 73.373047,32.0182704 L73.373047,62.3331711 L73.376953,62.3331711 C73.447594,63.550387 74.421631,64.5245719 75.638672,64.595215 L75.638672,64.5991216 L84.138672,64.5991216 L84.138672,66.8670253 L73.373047,66.8670253 L62.041016,66.8670253 L47.59375,66.8670253 L36.261719,66.8670253 L25.496094,66.8670253 C25.496094,66.8670253 25.397678,66.8702908 25.210938,66.8709318 C22.409843,66.8805842 0,66.4064561 0,48.8019308 C0,34.7290517 18.702244,32.0633129 24.919922,31.5650803 C24.925035,31.5265958 24.929688,31.4885963 24.929688,31.4498298 C24.929688,31.3526398 24.90918,31.2471176 24.871094,31.1372849 C22.147217,30.8900104 2.832031,28.6516479 2.832031,14.824395 C2.832031,0.851074229 25.496094,0 25.496094,0 L36.261719,0 L47.59375,0 L62.041016,0 L73.373047,0 L84.138672,0 C84.138672,0 105.384766,0.816371245 105.384766,14.1328887 C105.384766,26.5929422 89.40567,30.0956383 83.912109,30.9321764 C83.876366,31.0151623 83.855469,31.0938326 83.855469,31.1665851 C83.855469,31.3031327 83.908089,31.4565477 83.998047,31.6197752 C98.523087,34.2552597 102.520119,42.3867715 103.402344,53.6795843 C104.684128,70.0870917 114.027954,65.9561435 112.75,65.3941578 C112.444405,65.2597695 111.930214,64.643676 111.900391,63.5696767 C111.870544,62.4956855 112.326477,60.9638335 114.451172,60.9638335 C117,60.9638335 117,63.0218611 117,63.5696767 C117,68 109.899178,68 109.634766,68 Z M25.496094,64.5991216 L33.996094,64.5991216 L33.996094,64.595215 C35.213135,64.5245719 36.18718,63.550387 36.257813,62.3331711 L36.261719,62.3331711 L36.261719,32.5749913 C34.926773,32.5359512 28.327475,32.384805 24.462891,33.1317113 C20.274971,34.2678495 12.181641,37.8756946 12.181641,48.8019308 C12.181641,64.2523158 25.496094,64.5991216 25.496094,64.5991216 Z M47.59375,64.5991216 L59.775391,64.5991216 L59.775391,64.595215 C60.992432,64.5245719 61.96648,63.550387 62.037109,62.3331711 L62.041016,62.3331711 L62.041016,4.53385414 L62.037109,4.53385414 C61.96648,3.31663833 60.992432,2.34244642 59.775391,2.27181027 L59.775391,2.26595043 L47.59375,2.26595043 L47.59375,64.5991216 Z M34.986328,30.3364704 C35.621609,30.3354607 36.011627,30.3283947 36.261719,30.3227139 L36.261719,4.53385414 C36.18718,3.31663833 35.213135,2.34244642 33.996094,2.27181027 L33.996094,2.26595043 L25.496094,2.26595043 C25.496094,2.26595043 15.296875,2.48660112 15.296875,15.1076387 C15.296875,24.6921142 20.624596,28.1243552 23.46875,29.2756885 C26.312904,30.4270219 32.110958,30.3405884 34.986328,30.3364704 Z M75.226563,29.7699005 C77.197906,29.7646507 80.332069,29.6879037 83.03125,29.3167104 C85.826309,28.4622217 93.865234,25.0600371 93.865234,14.1328887 C93.865234,3.64963315 84.138672,2.26595043 84.138672,2.26595043 L75.638672,2.26595043 L75.638672,2.27181027 C74.421631,2.34244642 73.447594,3.31663833 73.376953,4.53385414 L73.373047,4.53385414 L73.373047,29.75232 C73.468704,29.7549753 74.124466,29.7728349 75.226563,29.7699005 Z" id="logotype-copy" fill="#000000" fill-rule="nonzero"></path>
    </g>
</svg>