<?xml version="1.0" encoding="UTF-8"?>
<!--Generator: Apple Native CoreSVG 175.5-->
<!DOCTYPE svg
PUBLIC "-//W3C//DTD SVG 1.1//EN"
       "http://www.w3.org/Graphics/SVG/1.1/DTD/svg11.dtd">
<svg version="1.1" xmlns="http://www.w3.org/2000/svg" xmlns:xlink="http://www.w3.org/1999/xlink" width="11.6699" height="7.79785">
 <g>
  <rect height="7.79785" opacity="0" width="11.6699" x="0" y="0"/>
  <path d="M2.39258 7.72949L8.75 7.72949C10.3955 7.72949 11.6699 6.48438 11.6699 4.89258C11.6699 3.28613 10.3662 2.0752 8.59375 2.0752C7.94434 0.786133 6.75293 0 5.30273 0C3.4082 0 1.80664 1.46973 1.63574 3.41797C0.65918 3.69629 0 4.5166 0 5.55664C0 6.75781 0.874023 7.72949 2.39258 7.72949ZM2.38281 6.94336C1.38184 6.94336 0.786133 6.40137 0.786133 5.58105C0.786133 4.87793 1.23535 4.37012 2.02637 4.16016C2.2998 4.0918 2.40234 3.96484 2.42188 3.68164C2.53906 2.02637 3.7793 0.786133 5.30273 0.786133C6.47949 0.786133 7.3877 1.44043 7.93457 2.56348C8.05176 2.80273 8.19336 2.88574 8.49121 2.88574C10.0195 2.88574 10.8789 3.80859 10.8789 4.91211C10.8789 6.0498 9.9707 6.94336 8.80371 6.94336Z" fill="#000000" fill-opacity="0.85"/>
 </g>
</svg>
