<?xml version="1.0" encoding="UTF-8"?>
<!--Generator: Apple Native CoreSVG 175.5-->
<!DOCTYPE svg
PUBLIC "-//W3C//DTD SVG 1.1//EN"
       "http://www.w3.org/Graphics/SVG/1.1/DTD/svg11.dtd">
<svg version="1.1" xmlns="http://www.w3.org/2000/svg" xmlns:xlink="http://www.w3.org/1999/xlink" width="10.5615" height="10.6006">
 <g>
  <rect height="10.6006" opacity="0" width="10.5615" x="0" y="0"/>
  <path d="M5.27832 7.78809C6.63574 7.78809 7.76367 6.66016 7.76367 5.29785C7.76367 3.93066 6.63574 2.80273 5.27832 2.80273C3.9209 2.80273 2.79297 3.93066 2.79297 5.29785C2.79297 6.66016 3.9209 7.78809 5.27832 7.78809ZM5.27832 7.04102C4.32617 7.04102 3.53516 6.25 3.53516 5.29785C3.53516 4.34082 4.32617 3.5498 5.27832 3.5498C6.23047 3.5498 7.02148 4.34082 7.02148 5.29785C7.02148 6.25 6.23047 7.04102 5.27832 7.04102ZM5.2832 1.89941C5.5127 1.89941 5.70312 1.70898 5.70312 1.47461L5.70312 0.424805C5.70312 0.19043 5.5127 0 5.2832 0C5.04883 0 4.8584 0.19043 4.8584 0.424805L4.8584 1.47461C4.8584 1.70898 5.04883 1.89941 5.2832 1.89941ZM7.67578 2.90039C7.8418 3.06152 8.11035 3.06641 8.27637 2.90039L9.02344 2.15332C9.18457 1.99219 9.18457 1.71875 9.02344 1.55273C8.8623 1.3916 8.59375 1.3916 8.42773 1.55273L7.67578 2.30469C7.51465 2.4707 7.51465 2.73926 7.67578 2.90039ZM8.66699 5.29785C8.66699 5.52734 8.8623 5.71777 9.0918 5.71777L10.1416 5.71777C10.3711 5.71777 10.5615 5.52734 10.5615 5.29785C10.5615 5.06836 10.3711 4.87305 10.1416 4.87305L9.0918 4.87305C8.8623 4.87305 8.66699 5.06836 8.66699 5.29785ZM7.67578 7.69531C7.51465 7.86133 7.51465 8.12988 7.67578 8.29102L8.42773 9.04785C8.59375 9.2041 8.8623 9.19922 9.02344 9.04297C9.18457 8.87695 9.18457 8.6084 9.02344 8.44727L8.27148 7.69531C8.11035 7.53906 7.8418 7.53906 7.67578 7.69531ZM5.2832 8.69629C5.04883 8.69629 4.8584 8.88672 4.8584 9.11621L4.8584 10.1709C4.8584 10.4004 5.04883 10.5908 5.2832 10.5908C5.5127 10.5908 5.70312 10.4004 5.70312 10.1709L5.70312 9.11621C5.70312 8.88672 5.5127 8.69629 5.2832 8.69629ZM2.88574 7.69531C2.71973 7.53906 2.44629 7.53906 2.28516 7.69531L1.53809 8.44238C1.37695 8.60352 1.37695 8.87207 1.5332 9.03809C1.69434 9.19434 1.96777 9.19922 2.13379 9.04297L2.88086 8.29102C3.04199 8.12988 3.04199 7.86133 2.88574 7.69531ZM1.89453 5.29785C1.89453 5.06836 1.69922 4.87305 1.46973 4.87305L0.419922 4.87305C0.19043 4.87305 0 5.06836 0 5.29785C0 5.52734 0.19043 5.71777 0.419922 5.71777L1.46973 5.71777C1.69922 5.71777 1.89453 5.52734 1.89453 5.29785ZM2.88086 2.90039C3.04199 2.74414 3.04199 2.46582 2.88574 2.30469L2.13867 1.55273C1.97754 1.39648 1.7041 1.3916 1.54297 1.55273C1.38184 1.71875 1.38184 1.99219 1.53809 2.14844L2.28516 2.90039C2.44629 3.06152 2.71484 3.06152 2.88086 2.90039Z" fill="#000000" fill-opacity="0.85"/>
 </g>
</svg>
