<?xml version="1.0" encoding="UTF-8"?>
<!--Generator: Apple Native CoreSVG 175.5-->
<!DOCTYPE svg
PUBLIC "-//W3C//DTD SVG 1.1//EN"
       "http://www.w3.org/Graphics/SVG/1.1/DTD/svg11.dtd">
<svg version="1.1" xmlns="http://www.w3.org/2000/svg" xmlns:xlink="http://www.w3.org/1999/xlink" width="10.0239" height="8.66699">
 <g>
  <rect height="8.66699" opacity="0" width="10.0239" x="0" y="0"/>
  <path d="M0.443773 2.93945C1.1469 2.71484 1.87444 2.59766 2.5678 2.59766C3.46623 2.59766 4.12541 2.74414 4.97502 2.74414C5.85393 2.74414 6.4008 2.14844 6.4008 1.37207C6.4008 0.576172 5.79045 0.00488281 5.0385 0.00488281C4.48186 0.00488281 3.99358 0.356445 3.7885 0.820312C3.71037 0.981445 3.73967 1.16699 3.91057 1.25488C4.06682 1.33301 4.25725 1.28418 4.35979 1.08887C4.46721 0.839844 4.73088 0.644531 5.0385 0.644531C5.44377 0.644531 5.76116 0.927734 5.76116 1.37207C5.76116 1.81641 5.45354 2.10938 4.97502 2.10938C4.16448 2.10938 3.49553 1.96289 2.5678 1.96289C1.7719 1.96289 0.966233 2.10449 0.24846 2.33398C0.0433819 2.39258-0.0347431 2.56836 0.014085 2.73438C0.0629132 2.90527 0.224046 3.00293 0.443773 2.93945ZM8.08049 5.22461C9.21819 5.22461 10.0239 4.50195 10.0239 3.49121C10.0239 2.49512 9.25725 1.77246 8.3051 1.77246C7.42131 1.77246 6.76701 2.3877 6.64983 3.19336C6.62053 3.39844 6.73284 3.55957 6.90862 3.58398C7.08928 3.6084 7.24553 3.49609 7.28459 3.2666C7.3676 2.75391 7.79241 2.40723 8.3051 2.40723C8.9008 2.40723 9.3842 2.85156 9.3842 3.49121C9.3842 4.14062 8.87151 4.58984 8.08049 4.58984C6.59123 4.58984 4.98479 3.74023 3.03166 3.74023C2.0258 3.74023 1.10784 3.90137 0.24846 4.2041C0.0482647 4.27734-0.0347431 4.44824 0.014085 4.61426C0.0629132 4.78516 0.228929 4.8877 0.443773 4.81445C1.23967 4.51172 2.06975 4.37988 3.03166 4.37988C4.97991 4.37988 6.43498 5.22461 8.08049 5.22461ZM4.97991 8.66699C5.73186 8.66699 6.31291 8.11035 6.31291 7.31445C6.31291 6.16211 5.13616 5.51758 2.96819 5.51758C2.05998 5.51758 1.07854 5.69336 0.24846 5.97656C0.0482647 6.0498-0.0347431 6.2207 0.014085 6.38672C0.0629132 6.55762 0.228929 6.66016 0.443773 6.58691C1.22014 6.30859 2.08928 6.15723 2.96819 6.15723C4.74065 6.15723 5.67815 6.60156 5.67815 7.31445C5.67815 7.75879 5.36565 8.03223 4.97991 8.03223C4.59416 8.03223 4.35979 7.77344 4.29143 7.36328C4.26213 7.18262 4.1303 7.03125 3.92034 7.0459C3.70061 7.06055 3.61272 7.24609 3.64201 7.44629C3.72991 8.125 4.23284 8.66699 4.97991 8.66699Z" fill="#000000" fill-opacity="0.85"/>
 </g>
</svg>
